<svg version="1.1" xmlns="http://www.w3.org/2000/svg" xmlns:xlink="http://www.w3.org/1999/xlink" width="677" height="410"><defs><clipPath id="oCRRQDBnvgdT"><path fill="none" stroke="none" d=" M 0 0 L 677 0 L 677 410 L 0 410 L 0 0 Z"/></clipPath></defs><g transform="scale(1,1)" clip-path="url(#oCRRQDBnvgdT)"><g transform="translate(-130,-130)"><path fill="none" stroke="rgb(0,0,0)" paint-order="fill stroke markers" d=" M 595.158615453589 327.96014969378524 C 595.158615453589 402.7850062040716 534.5010844215599 463.44253723610075 459.67622791127366 463.44253723610075 C 384.85137140098743 463.44253723610075 324.19384036895826 402.7850062040716 324.19384036895826 327.96014969378524 C 324.19384036895826 253.1352931834989 384.85137140098743 192.4777621514697 459.67622791127366 192.4777621514697 C 534.5010844215599 192.4777621514697 595.158615453589 253.1352931834989 595.158615453589 327.96014969378524 Z" stroke-opacity="0.6980392156862745" stroke-linecap="round" stroke-linejoin="round" stroke-miterlimit="10" stroke-width="2.5"/><path fill="none" stroke="rgb(0,0,0)" paint-order="fill stroke markers" d=" M 571.450947190272 432.80771843189996 C 571.450947190272 465.78487789422854 544.7176774357301 492.5181476487704 511.74051797340155 492.5181476487704 C 478.76335851107297 492.5181476487704 452.03008875653114 465.78487789422854 452.03008875653114 432.80771843189996 C 452.03008875653114 399.83055896957137 478.76335851107297 373.0972892150295 511.74051797340155 373.0972892150295 C 544.7176774357301 373.0972892150295 571.450947190272 399.83055896957137 571.450947190272 432.80771843189996 Z" stroke-opacity="0.6980392156862745" stroke-linejoin="round" stroke-miterlimit="10" stroke-width="2.5" stroke-dasharray="2.5,3"/><path fill="none" stroke="rgb(0,0,0)" paint-order="fill stroke markers" d=" M 333.5955567622326 377.54988347784086 L 586.3409067867232 376.0385903875661" stroke-opacity="0.6980392156862745" stroke-linecap="round" stroke-linejoin="round" stroke-miterlimit="10" stroke-width="2.5"/><path fill="none" stroke="rgb(0,0,0)" paint-order="fill stroke markers" d=" M 586.3409067867232 376.0385903875661 L 546.291365388868 223.78099969771557" stroke-opacity="0.6980392156862745" stroke-linecap="round" stroke-linejoin="round" stroke-miterlimit="10" stroke-width="2.5"/><path fill="none" stroke="rgb(0,0,0)" paint-order="fill stroke markers" d=" M 546.291365388868 223.78099969771557 L 333.5955567622326 377.54988347784086" stroke-opacity="0.6980392156862745" stroke-linecap="round" stroke-linejoin="round" stroke-miterlimit="10" stroke-width="2.5"/><path fill="none" stroke="rgb(0,0,0)" paint-order="fill stroke markers" d=" M 388.7047509108006 377.2203575565162 L 546.291365388868 223.78099969771557" stroke-opacity="0.6980392156862745" stroke-linecap="round" stroke-linejoin="round" stroke-miterlimit="10" stroke-width="2.5"/><path fill="none" stroke="rgb(0,0,0)" paint-order="fill stroke markers" d=" M 546.291365388868 223.78099969771557 L 569.187829707845 429" stroke-opacity="0.6980392156862745" stroke-linecap="round" stroke-linejoin="round" stroke-miterlimit="10" stroke-width="2.5"/><path fill="none" stroke="rgb(0,0,0)" paint-order="fill stroke markers" d=" M 567.1223971290196 410.48770905790093 L 586.3409067867232 376.0385903875661" stroke-opacity="0.6980392156862745" stroke-linecap="round" stroke-linejoin="round" stroke-miterlimit="10" stroke-width="2.5"/><path fill="rgb(77,77,255)" stroke="none" paint-order="stroke fill markers" d=" M 551.291365388868 223.78099969771557 C 551.291365388868 226.54242344686955 549.052789138022 228.78099969771557 546.291365388868 228.78099969771557 C 543.529941639714 228.78099969771557 541.291365388868 226.54242344686955 541.291365388868 223.78099969771557 C 541.291365388868 221.0195759485616 543.529941639714 218.78099969771557 546.291365388868 218.78099969771557 C 549.052789138022 218.78099969771557 551.291365388868 221.0195759485616 551.291365388868 223.78099969771557 Z" fill-opacity="1"/><path fill="none" stroke="rgb(0,0,0)" paint-order="fill stroke markers" d=" M 551.291365388868 223.78099969771557 C 551.291365388868 226.54242344686955 549.052789138022 228.78099969771557 546.291365388868 228.78099969771557 C 543.529941639714 228.78099969771557 541.291365388868 226.54242344686955 541.291365388868 223.78099969771557 C 541.291365388868 221.0195759485616 543.529941639714 218.78099969771557 546.291365388868 218.78099969771557 C 549.052789138022 218.78099969771557 551.291365388868 221.0195759485616 551.291365388868 223.78099969771557 Z" stroke-opacity="1" stroke-linecap="round" stroke-linejoin="round" stroke-miterlimit="10"/><text fill="rgb(77,77,255)" stroke="none" font-family="geogebra-sans-serif, sans-serif" font-size="12px" font-style="normal" font-weight="normal" text-decoration="normal" x="550" y="214" text-anchor="start" dominant-baseline="alphabetic" fill-opacity="1">A</text><text fill="none" stroke="rgb(255,255,255)" font-family="geogebra-sans-serif, sans-serif" font-size="12px" font-style="normal" font-weight="normal" text-decoration="normal" x="550" y="214" text-anchor="start" dominant-baseline="alphabetic" stroke-opacity="1" stroke-linejoin="bevel" stroke-miterlimit="10" stroke-width="3">A</text><text fill="rgb(77,77,255)" stroke="none" font-family="geogebra-sans-serif, sans-serif" font-size="12px" font-style="normal" font-weight="normal" text-decoration="normal" x="550" y="214" text-anchor="start" dominant-baseline="alphabetic" fill-opacity="1">A</text><path fill="rgb(77,77,255)" stroke="none" paint-order="stroke fill markers" d=" M 338.5955567622326 377.54988347784086 C 338.5955567622326 380.3113072269948 336.35698051138655 382.54988347784086 333.5955567622326 382.54988347784086 C 330.83413301307866 382.54988347784086 328.5955567622326 380.3113072269948 328.5955567622326 377.54988347784086 C 328.5955567622326 374.7884597286869 330.83413301307866 372.54988347784086 333.5955567622326 372.54988347784086 C 336.35698051138655 372.54988347784086 338.5955567622326 374.7884597286869 338.5955567622326 377.54988347784086 Z" fill-opacity="1"/><path fill="none" stroke="rgb(0,0,0)" paint-order="fill stroke markers" d=" M 338.5955567622326 377.54988347784086 C 338.5955567622326 380.3113072269948 336.35698051138655 382.54988347784086 333.5955567622326 382.54988347784086 C 330.83413301307866 382.54988347784086 328.5955567622326 380.3113072269948 328.5955567622326 377.54988347784086 C 328.5955567622326 374.7884597286869 330.83413301307866 372.54988347784086 333.5955567622326 372.54988347784086 C 336.35698051138655 372.54988347784086 338.5955567622326 374.7884597286869 338.5955567622326 377.54988347784086 Z" stroke-opacity="1" stroke-linecap="round" stroke-linejoin="round" stroke-miterlimit="10"/><text fill="rgb(77,77,255)" stroke="none" font-family="geogebra-sans-serif, sans-serif" font-size="12px" font-style="normal" font-weight="normal" text-decoration="normal" x="338" y="368" text-anchor="start" dominant-baseline="alphabetic" fill-opacity="1">B</text><text fill="none" stroke="rgb(255,255,255)" font-family="geogebra-sans-serif, sans-serif" font-size="12px" font-style="normal" font-weight="normal" text-decoration="normal" x="338" y="368" text-anchor="start" dominant-baseline="alphabetic" stroke-opacity="1" stroke-linejoin="bevel" stroke-miterlimit="10" stroke-width="3">B</text><text fill="rgb(77,77,255)" stroke="none" font-family="geogebra-sans-serif, sans-serif" font-size="12px" font-style="normal" font-weight="normal" text-decoration="normal" x="338" y="368" text-anchor="start" dominant-baseline="alphabetic" fill-opacity="1">B</text><path fill="rgb(77,77,255)" stroke="none" paint-order="stroke fill markers" d=" M 591.3409067867232 376.0385903875661 C 591.3409067867232 378.80001413672005 589.1023305358772 381.0385903875661 586.3409067867232 381.0385903875661 C 583.5794830375692 381.0385903875661 581.3409067867232 378.80001413672005 581.3409067867232 376.0385903875661 C 581.3409067867232 373.27716663841215 583.5794830375692 371.0385903875661 586.3409067867232 371.0385903875661 C 589.1023305358772 371.0385903875661 591.3409067867232 373.27716663841215 591.3409067867232 376.0385903875661 Z" fill-opacity="1"/><path fill="none" stroke="rgb(0,0,0)" paint-order="fill stroke markers" d=" M 591.3409067867232 376.0385903875661 C 591.3409067867232 378.80001413672005 589.1023305358772 381.0385903875661 586.3409067867232 381.0385903875661 C 583.5794830375692 381.0385903875661 581.3409067867232 378.80001413672005 581.3409067867232 376.0385903875661 C 581.3409067867232 373.27716663841215 583.5794830375692 371.0385903875661 586.3409067867232 371.0385903875661 C 589.1023305358772 371.0385903875661 591.3409067867232 373.27716663841215 591.3409067867232 376.0385903875661 Z" stroke-opacity="1" stroke-linecap="round" stroke-linejoin="round" stroke-miterlimit="10"/><text fill="rgb(77,77,255)" stroke="none" font-family="geogebra-sans-serif, sans-serif" font-size="12px" font-style="normal" font-weight="normal" text-decoration="normal" x="590" y="366" text-anchor="start" dominant-baseline="alphabetic" fill-opacity="1">C</text><text fill="none" stroke="rgb(255,255,255)" font-family="geogebra-sans-serif, sans-serif" font-size="12px" font-style="normal" font-weight="normal" text-decoration="normal" x="590" y="366" text-anchor="start" dominant-baseline="alphabetic" stroke-opacity="1" stroke-linejoin="bevel" stroke-miterlimit="10" stroke-width="3">C</text><text fill="rgb(77,77,255)" stroke="none" font-family="geogebra-sans-serif, sans-serif" font-size="12px" font-style="normal" font-weight="normal" text-decoration="normal" x="590" y="366" text-anchor="start" dominant-baseline="alphabetic" fill-opacity="1">C</text><path fill="rgb(68,68,68)" stroke="none" paint-order="stroke fill markers" d=" M 463.67622791127366 327.96014969378524 C 463.67622791127366 330.1692886931084 461.8853669105968 331.96014969378524 459.67622791127366 331.96014969378524 C 457.4670889119505 331.96014969378524 455.67622791127366 330.1692886931084 455.67622791127366 327.96014969378524 C 455.67622791127366 325.7510106944621 457.4670889119505 323.96014969378524 459.67622791127366 323.96014969378524 C 461.8853669105968 323.96014969378524 463.67622791127366 325.7510106944621 463.67622791127366 327.96014969378524 Z" fill-opacity="1"/><path fill="none" stroke="rgb(0,0,0)" paint-order="fill stroke markers" d=" M 463.67622791127366 327.96014969378524 C 463.67622791127366 330.1692886931084 461.8853669105968 331.96014969378524 459.67622791127366 331.96014969378524 C 457.4670889119505 331.96014969378524 455.67622791127366 330.1692886931084 455.67622791127366 327.96014969378524 C 455.67622791127366 325.7510106944621 457.4670889119505 323.96014969378524 459.67622791127366 323.96014969378524 C 461.8853669105968 323.96014969378524 463.67622791127366 325.7510106944621 463.67622791127366 327.96014969378524 Z" stroke-opacity="1" stroke-linecap="round" stroke-linejoin="round" stroke-miterlimit="10"/><text fill="rgb(68,68,68)" stroke="none" font-family="geogebra-sans-serif, sans-serif" font-size="12px" font-style="normal" font-weight="normal" text-decoration="normal" x="464" y="320" text-anchor="start" dominant-baseline="alphabetic" fill-opacity="1">O</text><text fill="none" stroke="rgb(255,255,255)" font-family="geogebra-sans-serif, sans-serif" font-size="12px" font-style="normal" font-weight="normal" text-decoration="normal" x="464" y="320" text-anchor="start" dominant-baseline="alphabetic" stroke-opacity="1" stroke-linejoin="bevel" stroke-miterlimit="10" stroke-width="3">O</text><text fill="rgb(68,68,68)" stroke="none" font-family="geogebra-sans-serif, sans-serif" font-size="12px" font-style="normal" font-weight="normal" text-decoration="normal" x="464" y="320" text-anchor="start" dominant-baseline="alphabetic" fill-opacity="1">O</text><path fill="rgb(125,125,255)" stroke="none" paint-order="stroke fill markers" d=" M 393.7047509108006 377.2203575565162 C 393.7047509108006 379.98178130567015 391.46617465995456 382.2203575565162 388.7047509108006 382.2203575565162 C 385.94332716164666 382.2203575565162 383.7047509108006 379.98178130567015 383.7047509108006 377.2203575565162 C 383.7047509108006 374.45893380736226 385.94332716164666 372.2203575565162 388.7047509108006 372.2203575565162 C 391.46617465995456 372.2203575565162 393.7047509108006 374.45893380736226 393.7047509108006 377.2203575565162 Z" fill-opacity="1"/><path fill="none" stroke="rgb(0,0,0)" paint-order="fill stroke markers" d=" M 393.7047509108006 377.2203575565162 C 393.7047509108006 379.98178130567015 391.46617465995456 382.2203575565162 388.7047509108006 382.2203575565162 C 385.94332716164666 382.2203575565162 383.7047509108006 379.98178130567015 383.7047509108006 377.2203575565162 C 383.7047509108006 374.45893380736226 385.94332716164666 372.2203575565162 388.7047509108006 372.2203575565162 C 391.46617465995456 372.2203575565162 393.7047509108006 374.45893380736226 393.7047509108006 377.2203575565162 Z" stroke-opacity="1" stroke-linecap="round" stroke-linejoin="round" stroke-miterlimit="10"/><text fill="rgb(125,125,255)" stroke="none" font-family="geogebra-sans-serif, sans-serif" font-size="12px" font-style="normal" font-weight="normal" text-decoration="normal" x="393" y="367" text-anchor="start" dominant-baseline="alphabetic" fill-opacity="1">D</text><text fill="none" stroke="rgb(255,255,255)" font-family="geogebra-sans-serif, sans-serif" font-size="12px" font-style="normal" font-weight="normal" text-decoration="normal" x="393" y="367" text-anchor="start" dominant-baseline="alphabetic" stroke-opacity="1" stroke-linejoin="bevel" stroke-miterlimit="10" stroke-width="3">D</text><text fill="rgb(125,125,255)" stroke="none" font-family="geogebra-sans-serif, sans-serif" font-size="12px" font-style="normal" font-weight="normal" text-decoration="normal" x="393" y="367" text-anchor="start" dominant-baseline="alphabetic" fill-opacity="1">D</text><path fill="rgb(68,68,68)" stroke="none" paint-order="stroke fill markers" d=" M 571.1223971290196 410.48770905790093 C 571.1223971290196 412.6968480572241 569.3315361283428 414.48770905790093 567.1223971290196 414.48770905790093 C 564.9132581296965 414.48770905790093 563.1223971290196 412.6968480572241 563.1223971290196 410.48770905790093 C 563.1223971290196 408.27857005857777 564.9132581296965 406.48770905790093 567.1223971290196 406.48770905790093 C 569.3315361283428 406.48770905790093 571.1223971290196 408.27857005857777 571.1223971290196 410.48770905790093 Z" fill-opacity="1"/><path fill="none" stroke="rgb(0,0,0)" paint-order="fill stroke markers" d=" M 571.1223971290196 410.48770905790093 C 571.1223971290196 412.6968480572241 569.3315361283428 414.48770905790093 567.1223971290196 414.48770905790093 C 564.9132581296965 414.48770905790093 563.1223971290196 412.6968480572241 563.1223971290196 410.48770905790093 C 563.1223971290196 408.27857005857777 564.9132581296965 406.48770905790093 567.1223971290196 406.48770905790093 C 569.3315361283428 406.48770905790093 571.1223971290196 408.27857005857777 571.1223971290196 410.48770905790093 Z" stroke-opacity="1" stroke-linecap="round" stroke-linejoin="round" stroke-miterlimit="10"/><text fill="rgb(68,68,68)" stroke="none" font-family="geogebra-sans-serif, sans-serif" font-size="12px" font-style="normal" font-weight="normal" text-decoration="normal" x="571" y="402" text-anchor="start" dominant-baseline="alphabetic" fill-opacity="1">E</text><text fill="none" stroke="rgb(255,255,255)" font-family="geogebra-sans-serif, sans-serif" font-size="12px" font-style="normal" font-weight="normal" text-decoration="normal" x="571" y="402" text-anchor="start" dominant-baseline="alphabetic" stroke-opacity="1" stroke-linejoin="bevel" stroke-miterlimit="10" stroke-width="3">E</text><text fill="rgb(68,68,68)" stroke="none" font-family="geogebra-sans-serif, sans-serif" font-size="12px" font-style="normal" font-weight="normal" text-decoration="normal" x="571" y="402" text-anchor="start" dominant-baseline="alphabetic" fill-opacity="1">E</text><path fill="rgb(68,68,68)" stroke="none" paint-order="stroke fill markers" d=" M 535.231712638155 376.36811630889076 C 535.231712638155 378.5772553082139 533.4408516374782 380.36811630889076 531.231712638155 380.36811630889076 C 529.0225736388319 380.36811630889076 527.231712638155 378.5772553082139 527.231712638155 376.36811630889076 C 527.231712638155 374.1589773095676 529.0225736388319 372.36811630889076 531.231712638155 372.36811630889076 C 533.4408516374782 372.36811630889076 535.231712638155 374.1589773095676 535.231712638155 376.36811630889076 Z" fill-opacity="1"/><path fill="none" stroke="rgb(0,0,0)" paint-order="fill stroke markers" d=" M 535.231712638155 376.36811630889076 C 535.231712638155 378.5772553082139 533.4408516374782 380.36811630889076 531.231712638155 380.36811630889076 C 529.0225736388319 380.36811630889076 527.231712638155 378.5772553082139 527.231712638155 376.36811630889076 C 527.231712638155 374.1589773095676 529.0225736388319 372.36811630889076 531.231712638155 372.36811630889076 C 533.4408516374782 372.36811630889076 535.231712638155 374.1589773095676 535.231712638155 376.36811630889076 Z" stroke-opacity="1" stroke-linecap="round" stroke-linejoin="round" stroke-miterlimit="10"/><text fill="rgb(68,68,68)" stroke="none" font-family="geogebra-sans-serif, sans-serif" font-size="12px" font-style="normal" font-weight="normal" text-decoration="normal" x="535" y="368" text-anchor="start" dominant-baseline="alphabetic" fill-opacity="1">G</text><text fill="none" stroke="rgb(255,255,255)" font-family="geogebra-sans-serif, sans-serif" font-size="12px" font-style="normal" font-weight="normal" text-decoration="normal" x="535" y="368" text-anchor="start" dominant-baseline="alphabetic" stroke-opacity="1" stroke-linejoin="bevel" stroke-miterlimit="10" stroke-width="3">G</text><text fill="rgb(68,68,68)" stroke="none" font-family="geogebra-sans-serif, sans-serif" font-size="12px" font-style="normal" font-weight="normal" text-decoration="normal" x="535" y="368" text-anchor="start" dominant-baseline="alphabetic" fill-opacity="1">G</text></g></g></svg>